<?xml version="1.0" encoding="UTF-8"?>
<!DOCTYPE svg PUBLIC "-//W3C//DTD SVG 1.1//EN" "http://www.w3.org/Graphics/SVG/1.1/DTD/svg11.dtd">
<!-- Creator: CorelDRAW 2020 (64 Bit) -->
<svg xmlns="http://www.w3.org/2000/svg" xml:space="preserve" width="297mm" height="210mm" version="1.1" style="shape-rendering:geometricPrecision; text-rendering:geometricPrecision; image-rendering:optimizeQuality; fill-rule:evenodd; clip-rule:evenodd"
viewBox="0 0 29700 21000"
 xmlns:xlink="http://www.w3.org/1999/xlink"
 xmlns:xodm="http://www.corel.com/coreldraw/odm/2003"
 data-name="Layer 1">
 <defs>
  <style type="text/css">
   <![CDATA[
    .str0 {stroke:#373435;stroke-width:20;stroke-miterlimit:22.9256}
    .fil23 {fill:#373435}
    .fil24 {fill:#010101}
    .fil22 {fill:white}
    .fil1 {fill:black;fill-rule:nonzero}
    .fil8 {fill:#2A2D6B;fill-rule:nonzero}
    .fil3 {fill:#606161;fill-rule:nonzero}
    .fil5 {fill:#CCE8EC;fill-rule:nonzero}
    .fil13 {fill:#EFFAFF;fill-rule:nonzero}
    .fil10 {fill:#F2DDCA;fill-rule:nonzero}
    .fil0 {fill:black;fill-rule:nonzero;fill-opacity:0.400000}
    .fil14 {fill:url(#id0);fill-rule:nonzero}
    .fil2 {fill:url(#id1);fill-rule:nonzero}
    .fil15 {fill:url(#id2);fill-rule:nonzero}
    .fil7 {fill:url(#id3);fill-rule:nonzero}
    .fil18 {fill:url(#id4);fill-rule:nonzero}
    .fil4 {fill:url(#id5);fill-rule:nonzero}
    .fil21 {fill:url(#id6);fill-rule:nonzero}
    .fil9 {fill:url(#id7);fill-rule:nonzero}
    .fil11 {fill:url(#id8);fill-rule:nonzero}
    .fil12 {fill:url(#id9);fill-rule:nonzero}
    .fil19 {fill:url(#id10);fill-rule:nonzero}
    .fil20 {fill:url(#id11);fill-rule:nonzero}
    .fil17 {fill:url(#id12);fill-rule:nonzero}
    .fil16 {fill:url(#id13);fill-rule:nonzero}
    .fil6 {fill:url(#id14);fill-rule:nonzero}
   ]]>
  </style>
  <linearGradient id="id0" gradientUnits="userSpaceOnUse" x1="471995.65" y1="58514.35" x2="472007.05" y2="64820.16">
   <stop offset="0" style="stop-opacity:0; stop-color:#010101"/>
   <stop offset="0.94902" style="stop-opacity:1; stop-color:#010101"/>
   <stop offset="1" style="stop-opacity:1; stop-color:#010101"/>
  </linearGradient>
  <linearGradient id="id1" gradientUnits="userSpaceOnUse" xlink:href="#id0" x1="16794.33" y1="17007.17" x2="15119.42" y2="19295.19">
  </linearGradient>
  <linearGradient id="id2" gradientUnits="userSpaceOnUse" xlink:href="#id0" x1="947775.88" y1="2647797.84" x2="1062078.94" y2="903226.36">
  </linearGradient>
  <linearGradient id="id3" gradientUnits="userSpaceOnUse" x1="-2158.99" y1="61731.97" x2="-2625.11" y2="61731.97">
   <stop offset="0" style="stop-opacity:0; stop-color:white"/>
   <stop offset="0.94902" style="stop-opacity:1; stop-color:white"/>
   <stop offset="1" style="stop-opacity:1; stop-color:white"/>
  </linearGradient>
  <linearGradient id="id4" gradientUnits="userSpaceOnUse" xlink:href="#id0" x1="214648.76" y1="-216284.94" x2="216746.69" y2="-100507.8">
  </linearGradient>
  <linearGradient id="id5" gradientUnits="userSpaceOnUse" xlink:href="#id0" x1="1009702.1" y1="-658343.34" x2="975763.09" y2="-439544.69">
  </linearGradient>
  <linearGradient id="id6" gradientUnits="userSpaceOnUse" xlink:href="#id0" x1="783685.1" y1="-703604.09" x2="380870.35" y2="-595142.17">
  </linearGradient>
  <linearGradient id="id7" gradientUnits="userSpaceOnUse" xlink:href="#id0" x1="1613933.1" y1="-1342388.39" x2="915660.77" y2="-1301858.62">
  </linearGradient>
  <linearGradient id="id8" gradientUnits="userSpaceOnUse" xlink:href="#id0" x1="657551.15" y1="-529266.25" x2="872025.44" y2="-632980.33">
  </linearGradient>
  <linearGradient id="id9" gradientUnits="userSpaceOnUse" xlink:href="#id0" x1="837874.03" y1="-1028178.38" x2="1216932" y2="-1070550.83">
  </linearGradient>
  <linearGradient id="id10" gradientUnits="userSpaceOnUse" xlink:href="#id0" x1="603829.79" y1="-270785.95" x2="597940.14" y2="-150047.91">
  </linearGradient>
  <linearGradient id="id11" gradientUnits="userSpaceOnUse" xlink:href="#id0" x1="305712.81" y1="-78361.2" x2="303588.26" y2="-60020.29">
  </linearGradient>
  <linearGradient id="id12" gradientUnits="userSpaceOnUse" xlink:href="#id3" x1="198549.32" y1="-415771.38" x2="110646.49" y2="-404748.66">
  </linearGradient>
  <linearGradient id="id13" gradientUnits="userSpaceOnUse" xlink:href="#id3" x1="540572.82" y1="-309912.34" x2="548974.97" y2="-680990.31">
  </linearGradient>
  <linearGradient id="id14" gradientUnits="userSpaceOnUse" xlink:href="#id0" x1="255575.05" y1="669454.37" x2="242985.35" y2="547838.87">
  </linearGradient>
 </defs>
 <g id="Camada_x0020_1">
  <metadata id="CorelCorpID_0Corel-Layer"/>
  <path class="fil0" d="M14511.87 18979.79c2212.42,-32.2 4431.18,-64.83 6624.95,-355.95 547.49,-72.88 1113.2,-169.5 1567.88,-483.51 389,-269.09 661.9,-675.03 880.56,-1094.55 339,-652.59 575.02,-1376.77 558.07,-2112.83 -19.49,-856.4 -375.44,-1688.23 -323.32,-2542.5 56.78,-920.4 573.76,-1737.39 964.05,-2571.76 407.23,-870.82 690.29,-1832.74 573.76,-2787.03 -165.69,-1356.01 -1134.81,-2518.79 -2308.62,-3220.51 -1173.8,-701.72 -2538.27,-1010.64 -3887.07,-1237.77 -1682.84,-285.24 -3399.84,-456.95 -5103.58,-500.96 -820.89,-18.17 -1668.4,-0.38 -2423.53,315.76 -701.74,295.35 -1273.37,828.01 -1799.69,1378.88 -1303.51,1365.31 -2436.74,2897.84 -3351.4,4549.1 -343.66,619.52 -664.45,1283.98 -673.77,1991.64 -16.1,1214.06 860.64,2230.21 1337.78,3347.65 453.79,1055.88 501.68,2169.06 284.29,3284.4 -148.74,767.84 -381.37,1585.69 479.7,1981.9 841.98,387.73 2134.87,124.58 3028.98,111.45l3570.96 -53.41z"/>
  <path class="fil1" d="M16451.83 18656.03c2.06,6.43 3.14,13.19 3.14,19.98 0,35.81 -29.03,64.83 -64.84,64.83 -1.2,0 -2.4,-0.04 -3.58,-0.1 -501.72,84.75 -1014.46,55.09 -1522.12,26.7 -38.99,-220.36 136.87,-428.41 339,-523.77 202.13,-95.35 431.81,-112.29 647.49,-169.5 89.22,-29.91 181.68,-51.57 275.06,-64.03 395.34,-31.26 312.69,373 325.85,645.89z"/>
  <path class="fil2" d="M16451.83 18656.03c2.06,6.43 3.14,13.19 3.14,19.98 0,35.81 -29.03,64.83 -64.84,64.83 -1.2,0 -2.4,-0.04 -3.58,-0.1 -501.72,84.75 -1014.46,55.09 -1522.12,26.7 -38.99,-220.36 136.87,-428.41 339,-523.77 202.13,-95.35 431.81,-112.29 647.49,-169.5 89.22,-29.91 181.68,-51.57 275.06,-64.03 395.34,-31.26 312.69,373 325.85,645.89z"/>
  <g>
   <path class="fil3" d="M14932.65 6747.31c-52.54,-364 -73.3,-769.96 147.48,-1064.03 178.82,-238.15 491.98,-352.56 789.02,-335.61 297.04,16.95 578.42,150.85 814.88,331.37 133.72,96.6 248.31,218.05 336.94,357.2 314.85,525.87 74.15,1294.57 493.67,1741.62 147.9,157.63 358.08,246.2 508.5,401.7 141.96,146.51 221.57,342.84 221.57,546.95 0,408.03 -312.6,748.35 -719.09,782.87 -229.26,19.5 -454.25,-61.86 -682.24,-92.38 -364.85,-49.15 -736.9,30.94 -1101.77,-10.18 -364.86,-41.12 -762.75,-265.28 -805.12,-630.54 -42.36,-365.27 271.62,-686.06 244.07,-1047.09 -19.49,-250.44 -197.89,-455.54 -311.87,-678.01 -113.99,-222.47 -139.85,-547.5 72.88,-682.24l-8.92 378.37zm0 0l0 0 0 0z"/>
  </g>
  <path class="fil4" d="M14932.65 6747.31c-52.54,-364 -73.3,-769.96 147.48,-1064.03 178.82,-238.15 491.98,-352.56 789.02,-335.61 297.04,16.95 578.42,150.85 814.88,331.37 133.72,96.6 248.31,218.05 336.94,357.2 314.85,525.87 74.15,1294.57 493.67,1741.62 147.9,157.63 358.08,246.2 508.5,401.7 141.96,146.51 221.57,342.84 221.57,546.95 0,408.03 -312.6,748.35 -719.09,782.87 -229.26,19.5 -454.25,-61.86 -682.24,-92.38 -364.85,-49.15 -736.9,30.94 -1101.77,-10.18 -364.86,-41.12 -762.75,-265.28 -805.12,-630.54 -42.36,-365.27 271.62,-686.06 244.07,-1047.09 -19.49,-250.44 -197.89,-455.54 -311.87,-678.01 -113.99,-222.47 -139.85,-547.5 72.88,-682.24m-8.92 378.37l0 0 0 0z"/>
  <rect class="fil5" x="18383.7" y="18137.37" width="102.12" height="164"/>
  <rect class="fil1" x="18094.27" y="15155.84" width="680.98" height="1780.19"/>
  <polygon class="fil6" points="18775.24,15155.85 18094.26,15155.85 18094.26,16936.04 18775.24,16936.04 "/>
  <rect class="fil1" x="18094.27" y="17782.27" width="680.98" height="332.64"/>
  <rect class="fil1" x="18196.4" y="16926.29" width="476.72" height="865.72"/>
  <polygon class="fil7" points="18673.12,16926.29 18196.4,16926.29 18196.4,17792.01 18673.12,17792.01 "/>
  <rect class="fil1" x="16883.19" y="17977.18" width="3103.56" height="165.27"/>
  <path class="fil8" d="M18523.98 18667.89l-178 0c-32.98,0.05 -59.75,-26.72 -59.75,-59.71l0.02 -323.34c-0.02,-32.99 26.75,-59.76 59.73,-59.76l178 0c32.96,0 59.73,26.77 59.73,59.76l0 323.32c0,33.01 -26.77,59.78 -59.75,59.78z"/>
  <rect class="fil5" x="19797.76" y="18132.7" width="102.12" height="223.73"/>
  <rect class="fil5" x="16975.16" y="18132.71" width="102.12" height="223.73"/>
  <circle class="fil8" cx="19928.28" cy="18470.86" r="220.76"/>
  <circle class="fil8" cx="16941.68" cy="18456.45" r="220.76"/>
  <path class="fil1" d="M21150.81 9355.94l-2385.73 0c-257,0 -477.61,183.12 -525.05,435.64l-965.31 5148.6 2777.28 -231.36 1098.81 -5352.88z"/>
  <path class="fil9" d="M21150.81 9355.94l-2385.73 0c-257,0 -477.61,183.12 -525.05,435.64l-965.31 5148.6 2777.28 -231.36 1098.81 -5352.88z"/>
  <path class="fil1" d="M17775.19 14853.28c-0.02,-213.21 172.86,-386.09 386.03,-386.09l1856.47 0.04c306.37,-1920.88 723.76,-4552.79 747.92,-4754.92 16.25,-200.36 183.7,-354.81 384.76,-354.81 212.41,0 384.97,171.65 386.05,384.06 0,39 0,111.02 -808.52,5172.34 -29.97,187.16 -191.59,324.96 -381.2,324.96 -0.04,0 -0.15,0 -0.19,0l-2185.27 0.03c-0.02,-0.03 -0.02,-0.03 -0.02,-0.03 -213.03,0 -385.86,-172.6 -386.05,-385.62l0.02 0.04zm2990 -5111.32c0,-8.47 0,-17.36 0,-25.84 -0.28,4.26 -0.4,8.62 -0.4,12.92 0,4.3 0.12,8.67 0.37,12.95l0.03 -0.03z"/>
  <path class="fil1" d="M15830.6 15238.89l2587.84 0c208.06,-6.88 373.26,-177.64 373.26,-385.86 0,-208.22 -165.2,-378.99 -373.28,-385.86l-2587.82 0.06c-4.24,-0.17 -8.58,-0.25 -12.81,-0.25 -213.18,0 -386.03,172.87 -386.03,386.05 0,213.17 172.85,386.05 386.03,386.05 4.23,0 8.57,-0.09 12.77,-0.19l0.04 0z"/>
  <path class="fil3" d="M18298.11 12832.83c0,0 -3524.36,1320.42 -3540.88,1380.59 -113.56,423.76 974.63,3898.52 974.63,3898.52 0,0 362.31,231.79 788.59,-46.18l-336.87 -3121.78 1726.36 -503.01c0,0 794.12,-341.13 388.17,-1608.14z"/>
  <path class="fil3" d="M15975.53 12768c0,0 -2457.78,1159.39 -2436.15,1218.3 21.62,58.91 476.3,3793 476.3,3793 0,0 326.29,219.92 785.2,0l72.04 -3138.73 2970.08 -426.73c0,0 292.38,-438.59 455.11,-1380.59 -319.95,-255.09 -2236.15,-95.77 -2322.58,-65.25z"/>
  <g>
   <path class="fil10" d="M13223.24 10928.48c0,0 -498.32,-145.35 -694.11,-127.12 -195.78,18.23 -626.3,231.79 -666.98,249.17 -40.68,17.39 -95.36,114.41 296.61,79.25 391.98,-35.15 544.11,261.04 833.94,200.03 289.83,-61.02 358.92,-236.03 358.92,-236.03l-128.38 -165.3zm0 0l0 0 0 0z"/>
  </g>
  <g>
   <path class="fil1" d="M15478.89 7986.37l-819.96 2373.03 -1512.81 499.61c0,0 -149.58,107.22 42.37,483.93 0,0 1518.72,-13.56 1870.86,-166.95 352.13,-153.4 947.52,-2390.4 947.52,-2390.4l-527.98 -799.22zm0 0l0 0 0 0z"/>
  </g>
  <path class="fil11" d="M15478.89 7986.37l-819.96 2373.03 -1512.81 499.61c0,0 -149.58,107.22 42.37,483.93 0,0 1518.72,-13.56 1870.86,-166.95 352.13,-153.4 947.52,-2390.4 947.52,-2390.4m-527.98 -799.22l0 0 0 0z"/>
  <path class="fil1" d="M17020.06 8143.16c208.92,262.73 361.9,591.13 497.49,873.77 285.74,593.28 472.94,1230.69 550.89,1884.08 44.91,389 42.36,786.92 87.3,1183.12 7.21,61.44 127.11,755.55 75.86,777.6 0,0 -807.68,289.43 -2031.05,305.95 -130.93,0 -569.53,68.65 -647.91,-73.72 -49.58,-89.83 42.36,-376.29 48.73,-475.46 49.57,-576.73 38.99,-872.51 56.36,-1450.92 6.36,-211.87 -341.98,-1085.66 -439.86,-1196.25 -129.24,-145.77 -175.87,-352.14 -157.64,-546.22 16.11,-175.42 108.91,-316.95 143.22,-483.5 31.79,-151.27 16.53,-299.17 66.52,-452.57 165.69,-503.01 618.68,-923.37 1178.46,-826.33 299.59,52.46 386.45,247.81 571.63,480.45z"/>
  <path class="fil12" d="M17020.06 8143.16c208.92,262.73 361.9,591.13 497.49,873.77 285.74,593.28 472.94,1230.69 550.89,1884.08 44.91,389 42.36,786.92 87.3,1183.12 7.21,61.44 127.11,755.55 75.86,777.6 0,0 -807.68,289.43 -2031.05,305.95 -130.93,0 -569.53,68.65 -647.91,-73.72 -49.58,-89.83 42.36,-376.29 48.73,-475.46 49.57,-576.73 38.99,-872.51 56.36,-1450.92 6.36,-211.87 -341.98,-1085.66 -439.86,-1196.25 -129.24,-145.77 -175.87,-352.14 -157.64,-546.22 16.11,-175.42 108.91,-316.95 143.22,-483.5 31.79,-151.27 16.53,-299.17 66.52,-452.57 165.69,-503.01 618.68,-923.37 1178.46,-826.33 299.59,52.46 386.45,247.81 571.63,480.45z"/>
  <path class="fil13" d="M15599.66 12618.84c0,0 -573.34,407.65 -407.65,506.37 151.71,90.68 1222.11,105.52 1365.75,200.87 143.64,95.35 386.05,432.65 962.34,582.23 576.29,149.59 778.44,-247.46 820.38,-582.23 5.5,-39.75 8.35,-79.95 8.35,-120.06 0,-153.75 -41.17,-305.11 -118.94,-437.66 -77.78,-132.56 -2110.72,236.5 -2630.23,-149.52z"/>
  <rect class="fil1" x="9723.48" y="11112.82" width="3465.87" height="227.97"/>
  <rect class="fil14" x="9723.48" y="11112.82" width="3465.87" height="227.97"/>
  <rect class="fil1" x="9362.02" y="11326.8" width="7750.86" height="231.36"/>
  <rect class="fil1" x="9405.24" y="11542.92" width="6165.17" height="7375.84"/>
  <rect class="fil15" x="9405.24" y="11542.92" width="6165.17" height="7375.84"/>
  <path class="fil1" d="M8923.86 7176.57l3695.97 0c241.29,0.02 436.92,195.66 436.92,436.91l-0.04 2481.06c0.04,241.27 -195.59,436.91 -436.84,436.91l-3696.01 -0.02c-241.21,0.02 -436.85,-195.62 -436.85,-436.87l-0.04 -2481.11c0.04,-241.22 195.68,-436.86 436.93,-436.86z"/>
  <path class="fil16" d="M8923.86 7176.57l3695.97 0c241.29,0.02 436.92,195.66 436.92,436.91l-0.04 2481.06c0.04,241.27 -195.59,436.91 -436.84,436.91l-3696.01 -0.02c-241.21,0.02 -436.85,-195.62 -436.85,-436.87l-0.04 -2481.11c0.04,-241.22 195.68,-436.86 436.93,-436.86z"/>
  <path class="fil1" d="M10232.41 9172.44l565.28 0c209.23,0.02 378.88,169.67 378.88,378.86l0 1789.93 -1323 -0.02 0 -1789.93c0.04,-209.17 169.69,-378.82 378.88,-378.82l-0.04 -0.02z"/>
  <path class="fil17" d="M10232.41 9172.44l565.28 0c209.23,0.02 378.88,169.67 378.88,378.86l0 1789.93 -1323 -0.02 0 -1789.93c0.04,-209.17 169.69,-378.82 378.88,-378.82l-0.04 -0.02z"/>
  <path class="fil10" d="M15709.41 8108.83c-0.07,2.17 -0.13,4.51 -0.13,6.72 0,26.58 4.64,53.05 13.66,78.03 23.94,47.97 70.48,80.66 123.74,86.86 12.38,1.31 24.96,2 37.44,2 40.06,0 79.92,-6.89 117.67,-20.23 226.7,-69.07 436.46,-251.28 461.88,-486.9 1.27,-17.65 2.05,-35.62 2.05,-53.41 0,-53.31 -6.16,-106.63 -18.15,-158.48 -21.5,-108.27 -54.7,-214.76 -98.75,-316.12 -42.36,-95.35 -105.09,-196.2 -207.21,-213.99 -102.11,-17.79 -206.78,66.96 -268.67,158.06 -177.53,257.68 -170.74,616.61 -163.53,917.46z"/>
  <path class="fil18" d="M16318.35 7589.3c-44.54,135.76 -135.38,251.75 -256.39,327.54 -42.49,26.58 -91.66,40.68 -141.76,40.68 -4.87,0 -9.8,-0.13 -14.63,-0.4 -93.22,-9.32 -166.53,-87.73 -203.39,-173.74 -30.35,-77.14 -46.52,-159.47 -47.42,-242.39 -1.75,-20.95 -2.62,-42.22 -2.62,-63.27 0,-127.62 31.51,-253.43 91.56,-365.94 75.01,-127.12 211.87,-224.6 361.45,-221.21 379.73,8.88 299.21,463.97 213.2,698.73z"/>
  <path class="fil10" d="M15059.79 6215.5l88.57 560.2c22.93,190.46 64.49,379.33 123.13,561.92 52.54,145.35 133.48,289.43 267.8,365.71 72,37.28 152.05,56.88 233.08,56.88 70.86,0 140.96,-14.98 205.64,-43.77 138.54,-63.49 256.85,-164.64 341.18,-291.54 214.84,-305.53 274.17,-697.93 242.81,-1069.98 -18.24,-219.07 -69.92,-443.67 -205.53,-616.57 -141.93,-176.37 -356.32,-278.99 -582.69,-278.99 -31.87,0 -63.74,2.11 -95.33,6.11 -360.59,50.84 -674.18,385.6 -618.66,750.03z"/>
  <path class="fil1" d="M16887.87 6426.96c-12.92,-40.46 -30.18,-79.69 -51.28,-116.55 8.7,-55.79 13.11,-112.34 13.11,-168.89 0,-0.13 0,-0.4 0,-0.53 0,-583.16 -472.89,-1056.05 -1055.98,-1056.05 -583.08,0 -1055.96,472.89 -1055.96,1055.99 -0.03,57.58 4.93,115.37 14.01,172.09 -20.38,36.38 -37.22,75.04 -50.06,114.81 -24.57,66.96 -8.89,390.7 21.61,434.78 55.94,80.93 207.63,144.08 304.24,156.37 11.18,12.26 27.05,19.3 43.66,19.3 1.83,0 3.7,-0.08 5.52,-0.25 29.72,-2.13 52.75,-26.87 52.75,-56.66 0,-1.6 -0.06,-3.2 -0.21,-4.8l-52.96 -582.23c-3.31,-29.13 -27.95,-51.16 -57.27,-51.16 -1.96,0 -3.94,0.11 -5.88,0.3 -13.83,1.49 -26.75,7.8 -36.44,17.79l-15.68 0c-42.01,-9.43 -77.82,-36.91 -97.89,-75.02 -7.42,-47.34 -11.34,-95.58 -11.44,-143.6 0,-528 421.62,-889.87 942,-889.87 520.37,0 941.99,362.74 941.99,889.87 0,0.3 0,0.85 0,1.19 0,48.11 -3.87,96.23 -11.42,143.68 -20.49,36.08 -55.31,61.82 -95.8,70.77l-15.68 0c-10.94,-11.44 -26.09,-17.91 -41.94,-17.91 -29.32,0 -54.04,21.88 -57.6,50.98l-52.97 582.24c-0.13,1.45 -0.19,2.93 -0.19,4.4 0,29.85 22.95,54.7 52.71,57.04 1.82,0.19 3.69,0.27 5.53,0.27 16.6,0 32.48,-7.04 43.63,-19.33 96.61,-12.28 248.3,-75.43 304.24,-156.37 30.54,-41.52 46.65,-365.71 21.65,-432.65z"/>
  <path class="fil19" d="M16887.87 6426.96c-12.92,-40.46 -30.18,-79.69 -51.28,-116.55 8.7,-55.79 13.11,-112.34 13.11,-168.89 0,-0.13 0,-0.4 0,-0.53 0,-583.16 -472.89,-1056.05 -1055.98,-1056.05 -583.08,0 -1055.96,472.89 -1055.96,1055.99 -0.03,57.58 4.93,115.37 14.01,172.09 -20.38,36.38 -37.22,75.04 -50.06,114.81 -24.57,66.96 -8.89,390.7 21.61,434.78 55.94,80.93 207.63,144.08 304.24,156.37 11.18,12.26 27.05,19.3 43.66,19.3 1.83,0 3.7,-0.08 5.52,-0.25 29.72,-2.13 52.75,-26.87 52.75,-56.66 0,-1.6 -0.06,-3.2 -0.21,-4.8l-52.96 -582.23c-3.31,-29.13 -27.95,-51.16 -57.27,-51.16 -1.96,0 -3.94,0.11 -5.88,0.3 -13.83,1.49 -26.75,7.8 -36.44,17.79l-15.68 0c-42.01,-9.43 -77.82,-36.91 -97.89,-75.02 -7.42,-47.34 -11.34,-95.58 -11.44,-143.6 0,-528 421.62,-889.87 942,-889.87 520.37,0 941.99,362.74 941.99,889.87 0,0.3 0,0.85 0,1.19 0,48.11 -3.87,96.23 -11.42,143.68 -20.49,36.08 -55.31,61.82 -95.8,70.77l-15.68 0c-10.94,-11.44 -26.09,-17.91 -41.94,-17.91 -29.32,0 -54.04,21.88 -57.6,50.98l-52.97 582.24c-0.13,1.45 -0.19,2.93 -0.19,4.4 0,29.85 22.95,54.7 52.71,57.04 1.82,0.19 3.69,0.27 5.53,0.27 16.6,0 32.48,-7.04 43.63,-19.33 96.61,-12.28 248.3,-75.43 304.24,-156.37 30.54,-41.52 46.65,-365.71 21.65,-432.65z"/>
  <path class="fil1" d="M16640.38 6987.57c-63.14,-49.15 -84.75,0 -84.75,0 -33.89,60.6 -228.83,332.64 -651.3,453.83 -38.24,-35.05 -88.27,-54.52 -140.12,-54.52 -3.71,0 -7.48,0.12 -11.17,0.29 -94.93,0 -171.61,45.34 -171.61,101.28 0,55.94 76.7,101.69 171.61,101.69 94.91,0 169.5,-44.91 171.61,-100.85 147.92,-45.34 516.57,-182.63 715.73,-501.72z"/>
  <path class="fil20" d="M16640.38 6987.57c-63.14,-49.15 -84.75,0 -84.75,0 -33.89,60.6 -228.83,332.64 -651.3,453.83 -38.24,-35.05 -88.27,-54.52 -140.12,-54.52 -3.71,0 -7.48,0.12 -11.17,0.29 -94.93,0 -171.61,45.34 -171.61,101.28 0,55.94 76.7,101.69 171.61,101.69 94.91,0 169.5,-44.91 171.61,-100.85 147.92,-45.34 516.57,-182.63 715.73,-501.72z"/>
  <path class="fil3" d="M15219.98 5959.98c38.88,37.75 74.48,79.17 105.93,123.32 124.44,143.39 305.11,225.82 495.04,225.82 83.86,0 167.03,-16.16 244.81,-47.46 84.75,-36.45 173.74,-92.81 262.3,-67.39 46.03,18.99 89.85,43.59 130.11,72.91 42.37,25 102.12,37.71 140.69,5.92 23.4,-23.16 36.59,-54.82 36.59,-87.81 0,-2.06 -0.06,-4.17 -0.15,-6.21 4.24,-131.38 -76.28,-248.31 -152.97,-354.69 -59.76,-92.3 -134.27,-174.75 -220.3,-243.29 -72.4,-48.35 -153.49,-82.75 -238.64,-100.79 -78.09,-18.15 -158.18,-27.49 -238.4,-27.49 -146.11,0 -290.78,30.71 -424.34,89.81 -76.62,31.3 -145.63,79.29 -201.71,140.21 -33.89,39.83 -96.2,134.74 -77.54,191.52 18.65,56.79 91.95,46.21 138.58,85.62z"/>
  <path class="fil10" d="M16924.31 6298.56c-21.62,-16.12 -47.68,-25.33 -74.59,-26.28 -36.4,5.54 -66.31,31.66 -76.74,66.96 -6.56,24.03 -9.93,48.92 -9.93,73.88 0,10.83 0.68,21.75 1.92,32.48l26.7 486.45c1.02,53.5 7.91,106.93 20.3,158.93 38.13,137.29 149.16,239.83 254.25,334.34 42.94,45.65 97.46,79.1 157.66,96.62 9.13,1.07 18.44,1.62 27.67,1.62 77.84,0 150.81,-38.13 195.22,-102.05 286.48,-368.24 -217.37,-936.08 -522.46,-1122.95z"/>
  <path class="fil1" d="M17438.74 10019.53c269.93,300.01 620.8,539.87 1017.01,616.99 12.29,5.41 25.63,8.24 39.1,8.24 48.03,0 88.8,-35.31 95.65,-82.83 119.5,-317.4 95.35,-672.93 13.13,-1002.18 -82.22,-329.24 -218.66,-641.98 -324.17,-964.46 -127.11,-393.66 -710.21,-1454.74 -754.28,-1454.74 -157.64,0 -311.04,173.32 -404.68,281.8 15.26,361.03 300.01,625.88 354.26,983.54 -42.36,-198.31 -332.64,-423.75 -513.58,-514.01 -75.44,-38.13 -400.87,-243.23 -469.94,-194.5 -53.81,37.71 155.09,290.7 142.8,355.53 -130.11,683.93 364.42,1477.19 804.7,1966.62z"/>
  <path class="fil21" d="M17438.74 10019.53c269.93,300.01 620.8,539.87 1017.01,616.99 12.29,5.41 25.63,8.24 39.1,8.24 48.03,0 88.8,-35.31 95.65,-82.83 119.5,-317.4 95.35,-672.93 13.13,-1002.18 -82.22,-329.24 -218.66,-641.98 -324.17,-964.46 -127.11,-393.66 -710.21,-1454.74 -754.28,-1454.74 -157.64,0 -311.04,173.32 -404.68,281.8 15.26,361.03 300.01,625.88 354.26,983.54 -42.36,-198.31 -332.64,-423.75 -513.58,-514.01 -75.44,-38.13 -400.87,-243.23 -469.94,-194.5 -53.81,37.71 155.09,290.7 142.8,355.53 -130.11,683.93 364.42,1477.19 804.7,1966.62z"/>
  <path class="fil22 str0" d="M14723.32 6862.61c-30.5,-44.08 -46.18,-367.82 -21.61,-434.78 12.84,-39.77 29.68,-78.43 50.06,-114.81 -9.08,-56.72 -14.04,-114.51 -14.01,-172.09 0,-583.1 472.88,-1055.99 1055.96,-1055.99 445.57,0 826.72,275.97 981.77,666.63 94.95,82.43 177.78,178.38 245.48,284.67 85.09,142.1 129.6,301.95 157.53,468.39 177.09,177.28 340.27,417.14 352.6,639.19 75.37,64.64 625.36,1070.54 748.36,1451.47 88.04,269.07 197.6,531.35 279.23,802.09 63.82,-26.77 133.65,-41.44 206.39,-41.44l2385.73 0 -0.44 1.56c212.41,0 384.97,171.65 386.05,384.06 0,39 0,111.02 -808.52,5172.34 -29.93,187.18 -191.57,324.96 -381.39,324.96l-1571.27 0.03 0 1697.14 -102.12 0 0 846.25 102.12 0 0 194.92 1211.51 0 0 165.26 -86.88 0 0 109.46c9.29,-1.21 18.78,-1.82 28.41,-1.82 121.93,0 220.76,98.83 220.76,220.76 0,121.94 -98.83,220.77 -220.76,220.77 -121.93,0 -220.76,-98.83 -220.76,-220.77 0,-73.09 35.51,-137.88 90.23,-178.05l0 -150.35 -1311.94 0 0 82.62 38.17 0c32.96,0 59.73,26.77 59.73,59.76l0 323.32c0,33.01 -26.77,59.78 -59.73,59.73l-178 0c-32.98,0.05 -59.75,-26.72 -59.75,-59.71l0.02 -323.34c-0.02,-32.99 26.75,-59.76 59.73,-59.76l37.71 0 0 -82.62 -1306.4 0 0 139.76c51.83,40.41 85.15,103.43 85.15,174.23 0,121.93 -98.83,220.76 -220.76,220.76 -121.93,0 -220.76,-98.83 -220.76,-220.76 0,-121.93 98.83,-220.76 220.76,-220.76 11.38,0 22.57,0.86 33.49,2.53l0 -95.76 -91.98 0 0 -165.26 1211.07 0 0 -194.92 102.14 0 0 -846.25 -102.14 0 0 -1697.14 -1878.85 0 305.04 2826.87c-40.49,26.41 -80.41,48.21 -119.5,66.06 71.43,135.06 42.72,354.92 50.88,524.21 2.06,6.43 3.14,13.19 3.14,19.98 0,35.81 -29.03,64.83 -64.84,64.83 -1.2,0 -2.4,-0.04 -3.58,-0.1 -269.7,45.54 -542.59,58.04 -816.15,55.45l0 122.56 -6165.16 0 0 -7360.6 -43.21 0 0 -231.36 361.45 0 0 -213.97 130.09 0 0 -581.39 -929.71 0c-241.21,0.02 -436.85,-195.62 -436.85,-436.87l-0.04 -2481.11c0.04,-241.22 195.68,-436.86 436.89,-436.88l3695.97 0c241.29,0.02 436.92,195.66 436.92,436.91l-0.04 2481.06c0.04,241.27 -195.59,436.91 -436.84,436.91l-1443.3 0 0 581.37 676.09 0c-36.86,-22.37 -11.78,-53.2 9.49,-62.29 40.68,-17.38 471.2,-230.94 666.98,-249.17 138.52,-12.9 428.5,56.09 586.26,97.55 14.8,-28.48 30.73,-39.9 30.73,-39.9l1512.81 -499.61 433.85 -1255.61c-84.08,-91.01 -141.6,-200.78 -156.29,-327.51 -42.36,-365.27 271.62,-686.06 244.07,-1047.09 -19.49,-250.44 -197.89,-455.54 -311.87,-678.01 -16.66,-32.52 -31.45,-67.21 -43.87,-103.21 -42.55,-24.35 -79.46,-53.47 -101.5,-85.36zm6413.5 11761.23c547.49,-72.88 1113.2,-169.5 1567.88,-483.51 389,-269.09 661.9,-675.03 880.56,-1094.55 339,-652.59 575.02,-1376.77 558.07,-2112.83 -19.49,-856.4 -375.44,-1688.23 -323.32,-2542.5 56.78,-920.4 573.76,-1737.39 964.05,-2571.76 407.23,-870.82 690.29,-1832.74 573.76,-2787.03 -165.69,-1356.01 -1134.81,-2518.79 -2308.62,-3220.51 -1173.8,-701.72 -2538.27,-1010.64 -3887.07,-1237.77 -1682.84,-285.24 -3399.84,-456.95 -5103.58,-500.96 -820.89,-18.17 -1668.4,-0.38 -2423.53,315.76 -701.74,295.35 -1273.37,828.01 -1799.69,1378.88 -1303.51,1365.31 -2436.74,2897.84 -3351.4,4549.1 -343.66,619.52 -664.45,1283.98 -673.77,1991.64 -16.1,1214.06 860.64,2230.21 1337.78,3347.65 453.79,1055.88 501.68,2169.06 284.29,3284.4 -148.74,767.84 -381.37,1585.69 479.7,1981.9 841.98,387.73 2134.87,124.58 3028.98,111.45l3570.96 -53.41c2212.42,-32.2 4431.18,-64.83 6624.95,-355.95z"/>
  <path class="fil22 str0" d="M14723.32 6862.61c-30.5,-44.08 -46.18,-367.82 -21.61,-434.78 12.84,-39.77 29.68,-78.43 50.06,-114.81 -9.08,-56.72 -14.04,-114.51 -14.01,-172.09 0,-583.1 472.88,-1055.99 1055.96,-1055.99 445.57,0 826.72,275.97 981.79,666.63 94.93,82.43 177.76,178.4 245.46,284.67 85.09,142.1 129.6,301.95 157.53,468.39 177.09,177.28 340.27,417.14 352.6,639.19 75.37,64.64 625.36,1070.54 748.36,1451.47 88.04,269.07 197.6,531.35 279.23,802.09 63.82,-26.77 133.65,-41.44 206.39,-41.44l2385.73 0 -0.44 1.56c212.41,0 384.97,171.65 386.05,384.06 0,39 0,111.02 -808.52,5172.34 -29.93,187.18 -191.57,324.96 -381.39,324.96l-1571.27 0.03 0 1697.14 -102.12 0 0 846.25 102.12 0 0 194.92 1211.51 0 0 165.26 -86.88 0 0 109.46c9.29,-1.21 18.78,-1.82 28.41,-1.82 121.93,0 220.76,98.83 220.76,220.76 0,121.94 -98.83,220.77 -220.76,220.77 -121.93,0 -220.76,-98.83 -220.76,-220.77 0,-73.09 35.51,-137.88 90.23,-178.05l0 -150.35 -1311.94 0 0 82.62 38.17 0c32.96,0 59.73,26.77 59.73,59.76l0 323.32c0,33.01 -26.77,59.78 -59.73,59.73l-178 0c-32.98,0.05 -59.75,-26.72 -59.75,-59.71l0.02 -323.34c-0.02,-32.99 26.75,-59.76 59.73,-59.76l37.71 0 0 -82.62 -1306.4 0 0 139.76c51.83,40.41 85.15,103.43 85.15,174.23 0,121.93 -98.83,220.76 -220.76,220.76 -121.93,0 -220.76,-98.83 -220.76,-220.76 0,-121.93 98.83,-220.76 220.76,-220.76 11.38,0 22.57,0.86 33.49,2.53l0 -95.76 -91.98 0 0 -165.26 1211.07 0 0 -194.92 102.14 0 0 -846.25 -102.14 0 0 -1697.14 -1878.85 0 305.04 2826.87c-40.49,26.41 -80.41,48.23 -119.5,66.06 71.43,135.06 42.72,354.92 50.88,524.21 2.06,6.43 3.14,13.19 3.14,19.98 0,35.81 -29.03,64.83 -64.84,64.83 -1.2,0 -2.4,-0.04 -3.58,-0.1 -269.7,45.54 -542.59,58.04 -816.15,55.45l0 122.56 -6165.16 0 0 -7360.6 -43.21 0 0 -231.36 361.45 0 0 -213.97 130.09 0 0 -581.39 -929.71 0c-241.21,0.02 -436.85,-195.62 -436.85,-436.87l-0.04 -2481.11c0.04,-241.22 195.68,-436.86 436.89,-436.88l3695.97 0c241.29,0.02 436.92,195.66 436.92,436.91l-0.04 2481.06c0.04,241.27 -195.59,436.91 -436.84,436.91l-1443.3 0 0 581.37 676.09 0c-36.86,-22.37 -11.78,-53.2 9.49,-62.29 40.68,-17.38 471.2,-230.94 666.98,-249.17 138.52,-12.9 428.5,56.09 586.26,97.55 14.8,-28.48 30.73,-39.9 30.73,-39.9l1512.81 -499.61 433.85 -1255.61c-84.08,-91.01 -141.6,-200.78 -156.29,-327.51 -42.36,-365.27 271.62,-686.06 244.07,-1047.09 -19.49,-250.44 -197.89,-455.54 -311.87,-678.01 -16.66,-32.52 -31.45,-67.21 -43.87,-103.21 -42.55,-24.35 -79.46,-53.47 -101.5,-85.36zm6413.5 11761.23c547.49,-72.88 1113.2,-169.5 1567.88,-483.51 389,-269.09 661.9,-675.03 880.56,-1094.55 339,-652.59 575.02,-1376.77 558.07,-2112.83 -19.49,-856.4 -375.44,-1688.23 -323.32,-2542.5 56.78,-920.4 573.76,-1737.39 964.05,-2571.76 407.23,-870.82 690.29,-1832.74 573.76,-2787.03 -165.69,-1356.01 -1134.81,-2518.79 -2308.62,-3220.51 -1173.8,-701.72 -2538.27,-1010.64 -3887.07,-1237.77 -1682.84,-285.24 -3399.84,-456.95 -5103.58,-500.96 -820.89,-18.17 -1668.4,-0.38 -2423.53,315.76 -701.74,295.35 -1273.37,828.01 -1799.69,1378.88 -1303.51,1365.31 -2436.74,2897.84 -3351.4,4549.1 -343.66,619.52 -664.45,1283.98 -673.77,1991.64 -16.1,1214.06 860.64,2230.21 1337.78,3347.65 453.79,1055.88 501.68,2169.06 284.29,3284.4 -148.74,767.84 -381.37,1585.69 479.7,1981.9 841.98,387.73 2134.87,124.58 3028.98,111.45l3570.96 -53.41c2212.42,-32.2 4431.18,-64.83 6624.95,-355.95z"/>
  <path class="fil22 str0" d="M16941.68 18235.69c-121.93,0 -220.76,98.83 -220.76,220.76 0,121.93 98.83,220.76 220.76,220.76 121.93,0 220.76,-98.83 220.76,-220.76 0,-70.8 -33.32,-133.82 -85.15,-174.23 -29.09,-22.65 -63.99,-38.21 -102.12,-44 -10.92,-1.67 -22.11,-2.53 -33.49,-2.53z"/>
  <path class="fil23 str0" d="M18286.25 18284.84l-0.02 323.34c0,32.99 26.77,59.76 59.75,59.71l178 0c32.96,0.05 59.73,-26.72 59.73,-59.73l0 -323.32c0,-32.99 -26.77,-59.76 -59.73,-59.76l-38.17 0 -102.12 0 -37.71 0c-32.98,0 -59.75,26.77 -59.73,59.76z"/>
  <path class="fil23 str0" d="M16941.68 18677.21c121.93,0 220.76,-98.83 220.76,-220.76 0,-70.8 -33.32,-133.82 -85.15,-174.23 -29.09,-22.65 -63.99,-38.21 -102.12,-44 -10.92,-1.67 -22.11,-2.53 -33.49,-2.53 -121.93,0 -220.76,98.83 -220.76,220.76 0,121.93 98.83,220.76 220.76,220.76z"/>
  <path class="fil24 str0" d="M19707.52 18470.86c0,121.94 98.83,220.77 220.76,220.77 121.93,0 220.76,-98.83 220.76,-220.77 0,-121.93 -98.83,-220.76 -220.76,-220.76 -9.63,0 -19.12,0.61 -28.41,1.82 -37.9,4.86 -72.76,19.32 -102.12,40.89 -54.72,40.17 -90.23,104.96 -90.23,178.05z"/>
  <path class="fil24 str0" d="M16941.68 18677.21c121.93,0 220.76,-98.83 220.76,-220.76 0,-70.8 -33.32,-133.82 -85.15,-174.23 -29.09,-22.65 -63.99,-38.21 -102.12,-44 -10.92,-1.67 -22.11,-2.53 -33.49,-2.53 -121.93,0 -220.76,98.83 -220.76,220.76 0,121.93 98.83,220.76 220.76,220.76z"/>
  <path class="fil24 str0" d="M18286.25 18284.84l-0.02 323.34c0,32.99 26.77,59.76 59.75,59.71l178 0c32.96,0.05 59.73,-26.72 59.73,-59.73l0 -323.32c0,-32.99 -26.77,-59.76 -59.73,-59.76l-38.17 0 -102.12 0 -37.71 0c-32.98,0 -59.75,26.77 -59.73,59.76z"/>
 </g>
</svg>
