<?xml version="1.0" standalone="no"?><svg xmlns="http://www.w3.org/2000/svg" viewBox="0 0 1440 320"><path fill="#101010" fill-opacity="1" d="M0,64L16,53.3C32,43,64,21,96,26.7C128,32,160,64,192,106.7C224,149,256,203,288,208C320,213,352,171,384,160C416,149,448,171,480,181.3C512,192,544,192,576,186.7C608,181,640,171,672,144C704,117,736,75,768,58.7C800,43,832,53,864,80C896,107,928,149,960,144C992,139,1024,85,1056,69.3C1088,53,1120,75,1152,90.7C1184,107,1216,117,1248,133.3C1280,149,1312,171,1344,165.3C1376,160,1408,128,1424,112L1440,96L1440,0L1424,0C1408,0,1376,0,1344,0C1312,0,1280,0,1248,0C1216,0,1184,0,1152,0C1120,0,1088,0,1056,0C1024,0,992,0,960,0C928,0,896,0,864,0C832,0,800,0,768,0C736,0,704,0,672,0C640,0,608,0,576,0C544,0,512,0,480,0C448,0,416,0,384,0C352,0,320,0,288,0C256,0,224,0,192,0C160,0,128,0,96,0C64,0,32,0,16,0L0,0Z"></path></svg>